<svg width="20" height="20" viewBox="0 0 20 20" fill="none" xmlns="http://www.w3.org/2000/svg">
<path d="M2.142 2.00013L4.01 14.1361C4.0432 14.3782 4.16385 14.5997 4.34919 14.7589C4.53452 14.918 4.77172 15.0039 5.016 15.0001L16 15.0001C16.2151 15.0001 16.4245 14.9308 16.5971 14.8023C16.7697 14.6739 16.8963 14.4932 16.958 14.2871L19.958 4.28713C20.0027 4.13782 20.0119 3.98011 19.9849 3.82661C19.9579 3.67311 19.8953 3.52805 19.8022 3.40302C19.7092 3.27799 19.5882 3.17645 19.4489 3.10649C19.3096 3.03654 19.1559 3.00011 19 3.00013L4.32 3.00013L3.99 0.862125C3.95602 0.617579 3.83278 0.394246 3.644 0.235125C3.45954 0.0797685 3.22514 -0.0036903 2.984 0.000125271L1 0.000125271C0.734784 0.000125271 0.48043 0.105482 0.292893 0.293018C0.105357 0.480555 0 0.734909 0 1.00013C0 1.26534 0.105357 1.5197 0.292893 1.70723C0.48043 1.89477 0.734784 2.00013 1 2.00013L2.142 2.00013ZM5.858 13.0001L4.628 5.00013L17.656 5.00013L15.256 13.0001L5.858 13.0001ZM8 18.0001C8 18.5306 7.78929 19.0393 7.41421 19.4143C7.03914 19.7894 6.53043 20.0001 6 20.0001C5.46957 20.0001 4.96086 19.7894 4.58579 19.4143C4.21071 19.0393 4 18.5306 4 18.0001C4 17.4697 4.21071 16.961 4.58579 16.5859C4.96086 16.2108 5.46957 16.0001 6 16.0001C6.53043 16.0001 7.03914 16.2108 7.41421 16.5859C7.78929 16.961 8 17.4697 8 18.0001ZM17 18.0001C17 18.5306 16.7893 19.0393 16.4142 19.4143C16.0391 19.7894 15.5304 20.0001 15 20.0001C14.4696 20.0001 13.9609 19.7894 13.5858 19.4143C13.2107 19.0393 13 18.5306 13 18.0001C13 17.4697 13.2107 16.961 13.5858 16.5859C13.9609 16.2108 14.4696 16.0001 15 16.0001C15.5304 16.0001 16.0391 16.2108 16.4142 16.5859C16.7893 16.961 17 17.4697 17 18.0001Z" fill="white"/>
</svg>
