<svg width="15" height="15" viewBox="0 0 15 15" fill="none" xmlns="http://www.w3.org/2000/svg">
<path fill-rule="evenodd" clip-rule="evenodd" d="M8 7H11.5C11.6326 7 11.7598 7.05268 11.8536 7.14645C11.9473 7.24021 12 7.36739 12 7.5C12 7.63261 11.9473 7.75979 11.8536 7.85355C11.7598 7.94732 11.6326 8 11.5 8H8V11.5C8 11.6326 7.94732 11.7598 7.85355 11.8536C7.75979 11.9473 7.63261 12 7.5 12C7.36739 12 7.24021 11.9473 7.14645 11.8536C7.05268 11.7598 7 11.6326 7 11.5V8H3.5C3.36739 8 3.24021 7.94732 3.14645 7.85355C3.05268 7.75979 3 7.63261 3 7.5C3 7.36739 3.05268 7.24021 3.14645 7.14645C3.24021 7.05268 3.36739 7 3.5 7H7V3.5C7 3.36739 7.05268 3.24021 7.14645 3.14645C7.24021 3.05268 7.36739 3 7.5 3C7.63261 3 7.75979 3.05268 7.85355 3.14645C7.94732 3.24021 8 3.36739 8 3.5V7ZM7.5 0C11.636 0 15 3.364 15 7.5C15 11.636 11.636 15 7.5 15C3.364 15 0 11.636 0 7.5C0 3.364 3.364 0 7.5 0ZM7.5 0.882C5.7448 0.882 4.06148 1.57925 2.82037 2.82037C1.57925 4.06148 0.882 5.7448 0.882 7.5C0.882 9.2552 1.57925 10.9385 2.82037 12.1796C4.06148 13.4207 5.7448 14.118 7.5 14.118C9.2552 14.118 10.9385 13.4207 12.1796 12.1796C13.4207 10.9385 14.118 9.2552 14.118 7.5C14.118 5.7448 13.4207 4.06148 12.1796 2.82037C10.9385 1.57925 9.2552 0.882 7.5 0.882Z" fill="white"/>
</svg>
